<svg width="542" height="179" viewBox="0 0 542 179" fill="none" xmlns="http://www.w3.org/2000/svg">
<path d="M231.836 93.8477C231.836 119.505 211.765 138.411 187.132 138.411C162.5 138.411 142.429 119.505 142.429 93.8477C142.429 68.01 162.5 49.2847 187.132 49.2847C211.765 49.2847 231.836 68.01 231.836 93.8477ZM212.267 93.8477C212.267 77.8146 200.634 66.8447 187.132 66.8447C173.631 66.8447 161.998 77.8146 161.998 93.8477C161.998 109.72 173.631 120.851 187.132 120.851C200.634 120.851 212.267 109.7 212.267 93.8477Z" fill="white"/>
<path d="M328.275 93.8477C328.275 119.505 308.204 138.411 283.572 138.411C258.939 138.411 238.868 119.505 238.868 93.8477C238.868 68.0301 258.939 49.2847 283.572 49.2847C308.204 49.2847 328.275 68.01 328.275 93.8477ZM308.706 93.8477C308.706 77.8146 297.073 66.8447 283.572 66.8447C270.07 66.8447 258.437 77.8146 258.437 93.8477C258.437 109.72 270.07 120.851 283.572 120.851C297.073 120.851 308.706 109.7 308.706 93.8477Z" fill="white"/>
<path d="M420.696 51.9769V131.981C420.696 164.891 401.288 178.333 378.343 178.333C356.745 178.333 343.746 163.887 338.844 152.073L355.881 144.981C358.915 152.234 366.349 160.793 378.323 160.793C393.01 160.793 402.112 151.731 402.112 134.674V128.264H401.429C397.049 133.669 388.61 138.391 377.962 138.391C355.68 138.391 335.267 118.982 335.267 94.0084C335.267 68.8538 355.68 49.2847 377.962 49.2847C388.59 49.2847 397.029 54.0062 401.429 59.2501H402.112V51.997H420.696V51.9769ZM403.498 94.0084C403.498 78.3169 393.03 66.8447 379.71 66.8447C366.208 66.8447 354.897 78.3169 354.897 94.0084C354.897 109.539 366.208 120.851 379.71 120.851C393.03 120.851 403.498 109.539 403.498 94.0084Z" fill="white"/>
<path d="M451.336 5.08325V135.678H432.249V5.08325H451.336Z" fill="white"/>
<path d="M525.715 108.514L540.904 118.64C536.002 125.893 524.188 138.39 503.775 138.39C478.459 138.39 459.553 118.821 459.553 93.8274C459.553 67.3267 478.62 49.2644 501.585 49.2644C524.71 49.2644 536.022 67.6682 539.719 77.6135L541.748 82.6766L482.176 107.349C486.737 116.29 493.829 120.85 503.775 120.85C513.74 120.85 520.652 115.948 525.715 108.514V108.514ZM478.962 92.4813L518.783 75.946C516.593 70.3806 510.003 66.5029 502.248 66.5029C492.303 66.5029 478.46 75.2829 478.962 92.4813V92.4813Z" fill="white"/>
<path d="M70.1797 82.2547V63.3486H133.89C134.513 66.6436 134.834 70.5413 134.834 74.7606C134.834 88.9452 130.957 106.485 118.46 118.982C106.304 131.64 90.7735 138.39 70.1998 138.39C32.0661 138.39 0 107.329 0 69.1952C0 31.0615 32.0661 0 70.1998 0C91.2959 0 106.324 8.27771 117.616 19.0669L104.275 32.4077C96.1781 24.8131 85.2082 18.9061 70.1797 18.9061C42.3329 18.9061 20.5536 41.3484 20.5536 69.1952C20.5536 97.0421 42.3329 119.484 70.1797 119.484C88.242 119.484 98.5288 112.231 105.119 105.641C110.463 100.297 113.979 92.6621 115.366 82.2346L70.1797 82.2547Z" fill="white"/>
</svg>
